<?xml version="1.0" encoding="utf-8"?>
<!-- Generator: Adobe Illustrator 21.0.0, SVG Export Plug-In . SVG Version: 6.00 Build 0)  -->
<svg version="1.1" id="Layer_1" xmlns="http://www.w3.org/2000/svg" xmlns:xlink="http://www.w3.org/1999/xlink" x="0px" y="0px"
	 viewBox="0 0 128 128" style="enable-background:new 0 0 128 128;" xml:space="preserve">
<g>
	<ellipse transform="matrix(0.7071 -0.7071 0.7071 0.7071 -47.6969 100.7873)" cx="97.8" cy="108" rx="14" ry="14"/>
	<path d="M119.9,33H31.7l-3.1-15.6C27.1,9.7,20.3,4.2,12.4,4.2H4.8C3.3,4.2,2,5.4,2,7s1.3,2.8,2.8,2.8h7.6c5.3,0,9.7,3.6,10.7,8.7
		l11.3,57.1c1.3,6.5,7.1,11.3,13.8,11.3h51.2c6.4,0,12-4.3,13.6-10.5c0,0,0,0,0,0l9.7-39.9c0.2-0.8,0-1.7-0.5-2.4
		C121.6,33.4,120.8,33,119.9,33z"/>
	<ellipse transform="matrix(0.9732 -0.2298 0.2298 0.9732 -23.4896 14.2289)" cx="49.3" cy="108" rx="14" ry="14"/>
</g>
</svg>
